<?xml version="1.0" encoding="UTF-8"?>
<svg xmlns="http://www.w3.org/2000/svg" xmlns:xlink="http://www.w3.org/1999/xlink" width="50pt" height="50pt" viewBox="0 0 50 50" version="1.1">
<g id="surface1">
<path style=" stroke:none;fill-rule:evenodd;fill:rgb(98.823529%,98.431373%,98.431373%);fill-opacity:1;" d="M 23.421875 10.980469 C 23.117188 12.207031 22.847656 13.207031 22.824219 13.207031 C 22.800781 13.207031 21.5625 12.90625 20.074219 12.539062 C 18.585938 12.167969 17.351562 11.882812 17.335938 11.902344 C 17.300781 11.9375 16.625 14.625 16.625 14.71875 C 16.625 14.753906 16.867188 14.828125 17.324219 14.933594 C 19.304688 15.390625 19.769531 15.691406 19.859375 16.566406 C 19.886719 16.839844 16.894531 29.011719 16.710938 29.367188 C 16.386719 30.007812 16.070312 30.039062 14.355469 29.589844 C 13.917969 29.472656 13.550781 29.394531 13.535156 29.410156 C 13.441406 29.503906 12.199219 32.46875 12.242188 32.496094 C 12.269531 32.511719 13.511719 32.832031 15 33.207031 C 17.25 33.773438 17.707031 33.902344 17.691406 33.957031 C 17.582031 34.3125 16.578125 38.425781 16.59375 38.441406 C 16.625 38.472656 19.269531 39.121094 19.285156 39.101562 C 19.292969 39.09375 19.550781 38.089844 19.855469 36.867188 C 20.339844 34.929688 20.421875 34.648438 20.488281 34.652344 C 20.578125 34.664062 22.550781 35.167969 22.589844 35.191406 C 22.601562 35.199219 22.367188 36.207031 22.058594 37.425781 C 21.753906 38.648438 21.519531 39.65625 21.535156 39.671875 C 21.578125 39.710938 24.199219 40.355469 24.21875 40.332031 C 24.230469 40.320312 24.488281 39.308594 24.792969 38.082031 C 25.097656 36.855469 25.351562 35.847656 25.359375 35.835938 C 25.367188 35.828125 25.679688 35.867188 26.050781 35.929688 C 31.214844 36.769531 33.851562 35.613281 35.066406 31.976562 C 36.03125 29.089844 35.207031 26.847656 32.714844 25.585938 C 32.5 25.476562 32.515625 25.453125 32.875 25.359375 C 34.464844 24.933594 35.566406 23.660156 35.9375 21.820312 C 36.554688 18.726562 35.085938 16.875 30.6875 15.195312 C 30.566406 15.148438 30.523438 15.113281 30.535156 15.054688 C 30.542969 15.015625 30.792969 14.007812 31.089844 12.816406 C 31.386719 11.628906 31.617188 10.648438 31.609375 10.636719 C 31.574219 10.601562 28.949219 9.953125 28.929688 9.976562 C 28.917969 9.984375 28.664062 10.964844 28.367188 12.152344 C 28.070312 13.339844 27.824219 14.316406 27.816406 14.324219 C 27.808594 14.328125 27.402344 14.242188 26.914062 14.125 C 26.421875 14.011719 25.933594 13.894531 25.824219 13.871094 C 25.570312 13.8125 25.535156 14.046875 26.164062 11.550781 C 26.523438 10.113281 26.683594 9.40625 26.652344 9.394531 C 26.53125 9.351562 24.078125 8.75 24.03125 8.75 C 23.992188 8.75 23.804688 9.425781 23.421875 10.980469 M 25.808594 17.253906 C 29.472656 18.09375 30.972656 19.300781 30.65625 21.15625 C 30.367188 22.855469 28.902344 23.550781 26.375 23.183594 C 25.652344 23.078125 23.59375 22.609375 23.515625 22.53125 C 23.5 22.515625 24.789062 17.28125 24.855469 17.09375 C 24.867188 17.0625 24.910156 17.046875 24.96875 17.0625 C 25.019531 17.074219 25.398438 17.160156 25.808594 17.253906 M 23.753906 25.496094 C 28.230469 26.527344 30.078125 27.847656 29.832031 29.835938 C 29.558594 31.992188 27.527344 32.714844 23.832031 31.957031 C 22.886719 31.765625 21.28125 31.347656 21.304688 31.300781 C 21.316406 31.285156 21.65625 29.925781 22.0625 28.28125 C 22.46875 26.636719 22.8125 25.292969 22.828125 25.292969 C 22.84375 25.292969 23.261719 25.382812 23.753906 25.496094 "/>
<path style=" stroke:none;fill-rule:evenodd;fill:rgb(95.686275%,58.039216%,7.843137%);fill-opacity:1;" d="M 23.355469 0.0273438 C 15.828125 0.625 9.316406 4.175781 4.910156 10.085938 C 0.199219 16.40625 -1.25 24.839844 1.089844 32.355469 C 5.503906 46.546875 21.117188 53.8125 34.769531 48.027344 C 49.164062 41.929688 54.480469 24.230469 45.839844 11.171875 C 41.695312 4.898438 35.171875 0.972656 27.457031 0.101562 C 26.882812 0.0351562 23.914062 -0.0195312 23.355469 0.0273438 M 25.367188 9.039062 C 26.085938 9.21875 26.683594 9.378906 26.699219 9.394531 C 26.714844 9.410156 26.480469 10.402344 26.179688 11.605469 L 25.636719 13.792969 L 25.785156 13.832031 C 26.339844 13.972656 27.621094 14.265625 27.707031 14.269531 C 27.804688 14.269531 27.816406 14.226562 28.347656 12.105469 C 28.644531 10.914062 28.890625 9.933594 28.890625 9.929688 C 28.933594 9.867188 31.644531 10.625 31.636719 10.695312 C 31.628906 10.769531 30.617188 14.851562 30.558594 15.046875 C 30.542969 15.101562 30.628906 15.148438 30.96875 15.273438 C 34.878906 16.703125 36.496094 18.734375 36.007812 21.605469 C 35.671875 23.574219 34.664062 24.804688 32.929688 25.371094 L 32.582031 25.484375 L 32.886719 25.65625 C 35.3125 27.039062 36.039062 29.117188 35.097656 31.980469 C 33.910156 35.597656 31.171875 36.808594 26.089844 35.960938 C 25.707031 35.898438 25.386719 35.851562 25.378906 35.859375 C 25.371094 35.867188 25.113281 36.878906 24.808594 38.109375 C 24.503906 39.335938 24.246094 40.351562 24.234375 40.363281 C 24.222656 40.375 23.59375 40.230469 22.84375 40.042969 L 21.472656 39.703125 L 22.027344 37.46875 C 22.332031 36.238281 22.574219 35.226562 22.566406 35.21875 C 22.539062 35.195312 20.453125 34.660156 20.4375 34.675781 C 20.429688 34.683594 20.175781 35.671875 19.875 36.875 C 19.578125 38.078125 19.324219 39.085938 19.3125 39.109375 C 19.28125 39.199219 16.5625 38.488281 16.570312 38.390625 C 16.574219 38.347656 16.824219 37.328125 17.121094 36.125 C 17.421875 34.925781 17.652344 33.929688 17.636719 33.914062 C 17.617188 33.898438 16.378906 33.582031 14.882812 33.203125 C 12.691406 32.652344 12.167969 32.507812 12.179688 32.457031 C 12.195312 32.40625 13.5 29.367188 13.515625 29.347656 C 13.519531 29.34375 13.941406 29.453125 14.457031 29.589844 C 15.976562 29.988281 16.320312 29.957031 16.664062 29.402344 C 16.835938 29.121094 19.84375 16.9375 19.824219 16.601562 C 19.769531 15.71875 19.351562 15.441406 17.398438 14.980469 C 16.96875 14.878906 16.605469 14.785156 16.59375 14.773438 C 16.566406 14.746094 17.292969 11.832031 17.328125 11.835938 C 17.34375 11.835938 18.585938 12.140625 20.09375 12.515625 L 22.832031 13.195312 L 22.875 13.046875 C 22.894531 12.964844 23.128906 12.023438 23.394531 10.957031 C 24 8.53125 23.953125 8.707031 24.011719 8.710938 C 24.039062 8.710938 24.648438 8.859375 25.367188 9.039062 M 24.207031 19.789062 C 23.835938 21.28125 23.539062 22.507812 23.546875 22.519531 C 23.597656 22.5625 25.5 23.011719 26.0625 23.109375 C 28.957031 23.613281 30.664062 22.722656 30.664062 20.707031 C 30.667969 19.03125 28.679688 17.757812 25.039062 17.101562 L 24.886719 17.078125 L 24.207031 19.789062 M 22.8125 25.386719 C 22.765625 25.515625 21.332031 31.304688 21.34375 31.316406 C 21.367188 31.339844 23.171875 31.789062 23.667969 31.894531 C 27.632812 32.730469 29.792969 31.902344 29.808594 29.542969 C 29.820312 27.6875 27.992188 26.484375 23.65625 25.5 C 22.828125 25.3125 22.835938 25.3125 22.8125 25.386719 "/>
<path style=" stroke:none;fill-rule:evenodd;fill:rgb(98.823529%,83.137255%,63.529412%);fill-opacity:1;" d="M 29.9375 19.042969 C 30.027344 19.132812 30.109375 19.207031 30.121094 19.207031 C 30.132812 19.207031 30.070312 19.132812 29.980469 19.042969 C 29.890625 18.949219 29.808594 18.875 29.796875 18.875 C 29.785156 18.875 29.847656 18.949219 29.9375 19.042969 M 29.996094 22.488281 L 29.855469 22.644531 L 30.011719 22.503906 C 30.15625 22.367188 30.1875 22.332031 30.152344 22.332031 C 30.148438 22.332031 30.078125 22.402344 29.996094 22.488281 M 27.40625 23.28125 C 27.527344 23.289062 27.714844 23.289062 27.824219 23.28125 C 27.933594 23.273438 27.832031 23.265625 27.605469 23.265625 C 27.375 23.265625 27.285156 23.273438 27.40625 23.28125 M 34.230469 26.707031 C 34.34375 26.824219 34.445312 26.917969 34.457031 26.917969 C 34.464844 26.917969 34.382812 26.824219 34.269531 26.707031 C 34.15625 26.59375 34.054688 26.5 34.042969 26.5 C 34.035156 26.5 34.117188 26.59375 34.230469 26.707031 M 35.46875 29.417969 C 35.46875 29.496094 35.476562 29.53125 35.488281 29.488281 C 35.496094 29.449219 35.496094 29.382812 35.488281 29.34375 C 35.476562 29.304688 35.46875 29.335938 35.46875 29.417969 M 25.761719 32.238281 C 25.800781 32.246094 25.867188 32.246094 25.90625 32.238281 C 25.945312 32.226562 25.914062 32.21875 25.832031 32.21875 C 25.753906 32.21875 25.71875 32.226562 25.761719 32.238281 "/>
<path style=" stroke:none;fill-rule:evenodd;fill:rgb(98.823529%,72.54902%,40.392157%);fill-opacity:1;" d="M 19.84375 16.75 C 19.84375 16.832031 19.851562 16.863281 19.863281 16.824219 C 19.871094 16.78125 19.871094 16.71875 19.863281 16.675781 C 19.851562 16.636719 19.84375 16.667969 19.84375 16.75 "/>
<path style=" stroke:none;fill-rule:evenodd;fill:rgb(98.823529%,67.45098%,27.843137%);fill-opacity:1;" d="M 34.730469 17.457031 C 34.820312 17.550781 34.902344 17.625 34.914062 17.625 C 34.925781 17.625 34.859375 17.550781 34.769531 17.457031 C 34.679688 17.367188 34.597656 17.292969 34.585938 17.292969 C 34.574219 17.292969 34.640625 17.367188 34.730469 17.457031 M 29 27.71875 C 29.101562 27.828125 29.191406 27.917969 29.195312 27.917969 C 29.226562 27.917969 29.195312 27.878906 29.011719 27.707031 L 28.8125 27.519531 L 29 27.71875 M 26.238281 32.238281 C 26.3125 32.246094 26.4375 32.246094 26.511719 32.238281 C 26.585938 32.230469 26.523438 32.222656 26.375 32.222656 C 26.226562 32.222656 26.164062 32.230469 26.238281 32.238281 M 28.824219 36.238281 C 28.898438 36.246094 29.011719 36.246094 29.074219 36.238281 C 29.136719 36.230469 29.074219 36.222656 28.9375 36.222656 C 28.800781 36.222656 28.75 36.230469 28.824219 36.238281 "/>
</g>
</svg>
